HIERARCHY
ROOT Hips
{
	OFFSET 0.0000 0.0000 0.0000
	CHANNELS 6 Xposition Yposition Zposition Zrotation Xrotation Yrotation
	JOINT Spine
	{
		OFFSET 0.0000 10.0000 0.0000
		CHANNELS 3 Zrotation Xrotation Yrotation
		JOINT Spine1
		{
			OFFSET 0.0000 14.0000 0.0000
			CHANNELS 3 Zrotation Xrotation Yrotation
			JOINT Neck
			{
				OFFSET 0.0000 17.0000 0.0000
				CHANNELS 3 Zrotation Xrotation Yrotation
				JOINT Head
				{
					OFFSET 0.0000 10.0000 0.0000
					CHANNELS 3 Zrotation Xrotation Yrotation
					End Site
					{
						OFFSET 0.0000 18.0000 0.0000
					}
				}
			}
			JOINT LeftShoulder
			{
				OFFSET 4.0000 13.0000 0.0000
				CHANNELS 3 Zrotation Xrotation Yrotation
				JOINT LeftArm
				{
					OFFSET 13.0000 0.0000 0.0000
					CHANNELS 3 Zrotation Xrotation Yrotation
					JOINT LeftForeArm
					{
						OFFSET 0.0000 -28.0000 0.0000
						CHANNELS 3 Zrotation Xrotation Yrotation
						JOINT LeftHand
						{
							OFFSET 0.0000 -24.0000 0.0000
							CHANNELS 3 Zrotation Xrotation Yrotation
							End Site
							{
								OFFSET 0.0000 -17.0000 0.0000
							}
						}
					}
				}
			}
			JOINT RightShoulder
			{
				OFFSET -4.0000 13.0000 0.0000
				CHANNELS 3 Zrotation Xrotation Yrotation
				JOINT RightArm
				{
					OFFSET -13.0000 0.0000 0.0000
					CHANNELS 3 Zrotation Xrotation Yrotation
					JOINT RightForeArm
					{
						OFFSET 0.0000 -28.0000 0.0000
						CHANNELS 3 Zrotation Xrotation Yrotation
						JOINT RightHand
						{
							OFFSET 0.0000 -24.0000 0.0000
							CHANNELS 3 Zrotation Xrotation Yrotation
							End Site
							{
								OFFSET 0.0000 -17.0000 0.0000
							}
						}
					}
				}
			}
		}
	}
	JOINT LeftUpLeg
	{
		OFFSET 9.0000 -4.0000 0.0000
		CHANNELS 3 Zrotation Xrotation Yrotation
		JOINT LeftLeg
		{
			OFFSET 0.0000 -42.0000 0.0000
			CHANNELS 3 Zrotation Xrotation Yrotation
			JOINT LeftFoot
			{
				OFFSET 0.0000 -40.0000 0.0000
				CHANNELS 3 Zrotation Xrotation Yrotation
				JOINT LeftToeBase
				{
					OFFSET 0.0000 -6.0000 13.0000
					CHANNELS 3 Zrotation Xrotation Yrotation
					End Site
					{
						OFFSET 0.0000 -2.0000 6.0000
					}
				}
			}
		}
	}
	JOINT RightUpLeg
	{
		OFFSET -9.0000 -4.0000 0.0000
		CHANNELS 3 Zrotation Xrotation Yrotation
		JOINT RightLeg
		{
			OFFSET 0.0000 -42.0000 0.0000
			CHANNELS 3 Zrotation Xrotation Yrotation
			JOINT RightFoot
			{
				OFFSET 0.0000 -40.0000 0.0000
				CHANNELS 3 Zrotation Xrotation Yrotation
				JOINT RightToeBase
				{
					OFFSET 0.0000 -6.0000 13.0000
					CHANNELS 3 Zrotation Xrotation Yrotation
					End Site
					{
						OFFSET 0.0000 -2.0000 6.0000
					}
				}
			}
		}
	}
}
MOTION
Frames: 7
Frame Time: 0.0333333
-1.5000 88.0000 0.0000 -1.5688 7.9087 4.1784 0.0314 1.7997 -1.0005 0.0471 1.4993 -1.8006 -0.0000 -3.0510 -0.0000 -0.0000 -3.7290 -0.0000 3.0000 0.0000 -0.0000 5.3191 -19.9207 1.8169 -0.0000 -45.0000 -0.0000 -0.0000 -8.0000 -0.0000 -3.0000 0.0000 -0.0000 -5.3191 19.9207 1.8169 -0.0000 -45.0000 -0.0000 -0.0000 -8.0000 -0.0000 4.4816 -6.9883 -1.5124 -0.0000 55.2386 -0.0000 -2.7463 -32.4420 -4.6869 -0.0000 -9.9332 -0.0000 -1.1903 -41.8579 -2.7757 0.0000 11.4674 -0.0000 0.2471 11.8152 -2.1309 -0.0000 4.0391 -0.0000
-1.6160 87.4200 9.0175 -2.2119 7.8662 5.5050 0.0420 1.8344 -1.3132 0.0630 1.5278 -2.3633 -0.0000 -3.0786 -0.0000 -0.0000 -3.7627 -0.0000 3.0000 0.0000 -0.0000 5.5911 -26.1418 2.4697 -0.0000 -45.0969 -0.0000 -0.0000 -8.0000 -0.0000 -3.0000 0.0000 -0.0000 -5.5911 26.1418 2.4697 -0.0000 -45.0969 -0.0000 -0.0000 -8.0000 -0.0000 5.2607 -12.3845 -2.0944 -0.0000 63.5317 -0.0000 -3.9461 -41.7449 -6.3115 -0.0000 -0.7113 -0.0000 -1.1231 -41.1101 -3.5646 0.0000 18.4587 0.0000 0.0892 3.4180 -2.6997 -0.0000 3.4897 -0.0000
-1.7480 86.7600 18.0526 -2.8491 7.8157 6.3353 0.0489 1.8671 -1.5008 0.0733 1.5547 -2.7010 -0.0000 -3.1049 -0.0000 -0.0000 -3.7948 -0.0000 3.0000 0.0000 -0.0000 5.8081 -29.8725 2.9003 -0.0000 -45.1880 -0.0000 -0.0000 -8.0000 -0.0000 -3.0000 0.0000 -0.0000 -5.8081 29.8725 2.9003 -0.0000 -45.1880 -0.0000 -0.0000 -8.0000 -0.0000 5.6716 -19.8427 -2.5289 -0.0000 72.3525 0.0000 -5.1266 -48.2303 -7.6512 -0.0000 5.7246 -0.0000 -0.7646 -43.4040 -4.1528 -0.0000 34.5227 -0.0000 -0.3114 -11.0962 -3.0620 -0.0000 3.0000 -0.0000
-1.8720 86.1400 27.0789 -3.3185 7.8107 6.1669 0.0478 1.8981 -1.4418 0.0716 1.5806 -2.5947 -0.0000 -3.1301 -0.0000 -0.0000 -3.8256 -0.0000 3.0000 0.0000 -0.0000 5.7614 -28.7363 2.7772 -0.0000 -45.2736 -0.0000 -0.0000 -8.0000 -0.0000 -3.0000 0.0000 -0.0000 -5.7614 28.7363 2.7772 -0.0000 -45.2736 -0.0000 -0.0000 -8.0000 -0.0000 5.6407 -28.4106 -2.5915 -0.0000 79.8350 0.0000 -5.6753 -51.1807 -7.8637 -0.0000 7.9998 -0.0000 0.4863 -41.7510 -3.8016 0.0000 42.0626 -0.0000 -0.1566 -8.9478 -2.9049 -0.0000 0.1429 -0.0000
-1.9640 85.6800 36.0701 -3.6021 7.8483 5.5617 0.0430 1.9273 -1.2785 0.0645 1.6052 -2.3009 -0.0000 -3.1542 -0.0000 -0.0000 -3.8551 -0.0000 3.0000 0.0000 -0.0000 5.6174 -25.5961 2.4332 -0.0000 -45.3540 -0.0000 -0.0000 -8.0000 -0.0000 -3.0000 0.0000 -0.0000 -5.6174 25.5961 2.4332 -0.0000 -45.3540 -0.0000 -0.0000 -8.0000 -0.0000 5.3479 -37.3796 -2.5183 0.0000 84.5295 0.0000 -5.4966 -50.7034 -7.1018 -0.0000 7.9140 -0.0000 1.8609 -38.5685 -3.1273 0.0000 48.8139 0.0000 -0.6310 -18.3844 -2.7546 -0.0000 0.0000 -0.0000
-2.0000 85.5000 45.0000 -3.6137 7.9329 4.5903 0.0352 1.9549 -1.0319 0.0528 1.6285 -1.8570 -0.0000 -3.1773 -0.0000 -0.0000 -3.8834 -0.0000 3.0000 0.0000 -0.0000 5.4354 -20.8515 1.9398 -0.0000 -45.4297 -0.0000 -0.0000 -8.0000 -0.0000 -3.0000 0.0000 -0.0000 -5.4354 20.8515 1.9398 -0.0000 -45.4297 -0.0000 -0.0000 -8.0000 -0.0000 4.9356 -45.7399 -2.2504 -0.0000 85.5267 0.0000 -4.7475 -46.8396 -5.5929 -0.0000 7.6877 -0.0000 2.9885 -32.9339 -2.2727 0.0000 50.9823 0.0000 -1.0480 -26.2447 -2.5260 -0.0000 0.0000 -0.0000
-1.8981 85.8704 53.8525 -3.3239 8.0509 3.3300 0.0250 1.9810 -0.7227 0.0375 1.6505 -1.3005 -0.0000 -3.1997 -0.0000 -0.0000 -3.9107 -0.0000 3.0000 0.0000 -0.0000 5.2693 -14.9026 1.3587 -0.0000 -45.5010 -0.0000 -0.0000 -8.0000 -0.0000 -3.0000 0.0000 -0.0000 -5.2693 14.9026 1.3587 -0.0000 -45.5010 -0.0000 -0.0000 -8.0000 -0.0000 4.5702 -52.1316 -1.6680 -0.0000 82.0443 0.0000 -3.7588 -40.0840 -3.7691 -0.0000 7.3433 -0.0000 3.5013 -24.9220 -1.4154 -0.0000 48.0780 -0.0000 -1.1944 -31.3888 -2.0666 -0.0000 0.0000 -0.0000
